<svg height="512pt" viewBox="0 -40 512.001 512" width="512pt" xmlns="http://www.w3.org/2000/svg"><path d="m372.160156 219.277344h20.648438c14.054687 0 25.488281-11.433594 25.488281-25.484375 0-14.054688-11.433594-25.488281-25.488281-25.488281h-20.648438c-14.054687 0-25.488281 11.433593-25.488281 25.488281 0 14.050781 11.433594 25.484375 25.488281 25.484375zm0-30.972656h20.648438c3.027344 0 5.488281 2.460937 5.488281 5.488281 0 3.023437-2.460937 5.484375-5.488281 5.484375h-20.648438c-3.027344 0-5.488281-2.460938-5.488281-5.484375 0-3.027344 2.460937-5.488281 5.488281-5.488281zm0 0"/><path d="m486.832031 190.144531v-130.132812c0-33.089844-26.921875-60.011719-60.011719-60.011719h-118.359374c-18.894532 0-34.265626 15.371094-34.265626 34.265625s15.371094 34.265625 34.265626 34.265625h91.351562c9.128906 0 16.554688 7.425781 16.554688 16.554688 0 9.128906-7.425782 16.554687-16.554688 16.554687h-72.566406c-5.523438 0-10 4.480469-10 10 0 5.523437 4.476562 10 10 10h72.566406c20.15625 0 36.554688-16.398437 36.554688-36.554687 0-20.160157-16.398438-36.554688-36.554688-36.554688h-91.351562c-7.863282 0-14.265626-6.402344-14.265626-14.265625 0-7.867187 6.402344-14.265625 14.265626-14.265625h118.355468c22.066406 0 40.015625 17.949219 40.015625 40.011719v127.863281l-5.167969-.53125v-6.460938c0-19.867187-14.398437-36.4375-33.308593-39.824218-.996094-.179688-2.003907-.320313-3.019531-.425782-.34375-.035156-.683594-.0625-1.023438-.089843-1.027344-.078125-2.0625-.117188-3.109375-.117188h-217.671875v-24.589843c0-9.785157-7.960938-17.746094-17.742188-17.746094h-68.515624c-9.785157 0-17.746094 7.960937-17.746094 17.746094v24.589843h-8.730469c-1.046875 0-2.082031.039063-3.109375.117188-.339844.027343-.683594.054687-1.023438.089843-1.015624.105469-2.023437.246094-3.019531.425782-18.910156 3.386718-33.308593 19.957031-33.308593 39.824218v6.460938l-21.453126 2.203125c-16.46875 1.6875-28.882812 15.441406-28.882812 31.992187 0 16.550782 12.414062 30.304688 28.878906 31.996094h.003906l21.453126 2.199219v148.691406c0 15.191407 12.359374 27.554688 27.554687 27.554688h356.222656c15.191407 0 27.550781-12.359375 27.550781-27.554688v-148.691406l21.457032-2.199219c16.464844-1.691406 28.878906-15.445312 28.878906-31.996094 0-15.28125-10.585938-28.175781-25.167969-31.394531zm-367.304687-72.054687h64.003906v22.335937h-64.003906zm-32.347656 42.65625c.082031-.015625.167968-.03125.25-.042969.167968-.027344.339843-.054687.507812-.078125.933594-.132812 1.886719-.199219 2.855469-.199219h330.410156c.96875 0 1.921875.066407 2.855469.199219.171875.023438.339844.050781.507812.078125.085938.011719.167969.027344.253906.042969 9.5625 1.710937 16.839844 10.09375 16.839844 20.140625v46.269531h-158.308594c-13.640624-18.148438-32.730468-31.039062-54.160156-37.023438-.074218-.019531-.148437-.039062-.222656-.0625-.0625-.015624-.121094-.03125-.179688-.046874-7.691406-2.121094-15.746093-3.359376-24.042968-3.605469-.039063 0-.078125 0-.117188-.003907-.195312-.003906-.386718-.007812-.582031-.011718-.0625-.003906-.125-.003906-.1875-.003906-.171875-.007813-.347656-.007813-.519531-.011719-.074219 0-.148438-.003907-.222656-.003907-.171876 0-.339844-.003906-.511719-.003906-.070313-.003906-.140625-.003906-.210938-.003906-.238281 0-.476562-.003906-.714843-.003906-.238282 0-.476563.003906-.710938.003906-.070312 0-.140625 0-.210938.003906-.171874 0-.34375 0-.511718.003906-.074219 0-.148438.003907-.222656.003907-.171876.003906-.347657.003906-.523438.011719-.0625 0-.121094 0-.183594.003906-.195312.003906-.390625.007812-.582031.011718-.039063.003907-.078125.003907-.117187.003907-8.300782.246093-16.351563 1.484375-24.042969 3.605469-.058594.015624-.121094.03125-.179688.046874-.074219.023438-.148437.042969-.222656.0625-21.429687 5.984376-40.519531 18.875-54.164063 37.023438h-49.671874v-46.269531c0-10.050781 7.28125-18.429688 16.84375-20.140625zm202.308593 179.980468 12.640625 11.140626c2.03125 1.792968 3.242188 4.265624 3.414063 6.96875.171875 2.699218-.722657 5.304687-2.511719 7.335937-1.792969 2.03125-4.265625 3.242187-6.964844 3.414063-2.703125.167968-5.308594-.722657-7.339844-2.511719l-11.332031-9.988281c4.558594-5.042969 8.617188-10.535157 12.09375-16.359376zm-269.488281-119.1875c0-6.257812 4.695312-11.457031 10.921875-12.097656l19.414063-1.992187v28.179687l-19.414063-1.988281c-6.226563-.640625-10.921875-5.84375-10.921875-12.101563zm414.109375 190.441407h-356.21875c-4.167969 0-7.554687-3.390625-7.554687-7.554688v-157.269531h37.945312c-5.625 12.652344-8.753906 26.652344-8.753906 41.367188 0 3.902343.226562 7.839843.664062 11.699218.628906 5.488282 5.574219 9.429688 11.070313 8.800782 5.488281-.625 9.429687-5.582032 8.800781-11.066407-.351562-3.109375-.535156-6.285156-.535156-9.433593 0-37.132813 24.765625-68.589844 58.648437-78.726563.089844-.027344.179688-.050781.269531-.078125.066407-.019531.128907-.039062.195313-.058594 6.773437-1.976562 13.851563-3.09375 21.074219-3.265625.042968 0 .082031-.003906.121094-.003906.15625-.003906.316406-.003906.472656-.007813.054687 0 .109375 0 .164062-.003906.148438 0 .300782-.003906.449219-.003906h.167969c.195312 0 .394531-.003906.59375-.003906.199218 0 .394531.003906.59375.003906h.167968c.148438 0 .296876.003906.449219.003906.054688.003906.109375.003906.164063.003906.15625.003907.3125.007813.472656.007813.039062.003906.078125.003906.117188.003906 7.222656.171875 14.300781 1.289063 21.078124 3.265625.0625.019532.128907.039063.195313.058594.089844.027344.179687.050781.269531.078125 33.878906 10.136719 58.644532 41.59375 58.644532 78.726563 0 45.300781-36.851563 82.152343-82.152344 82.152343-16.40625 0-32.238282-4.816406-45.789063-13.929687-4.582031-3.082032-10.792969-1.867188-13.878906 2.714844-3.082031 4.582031-1.867187 10.796874 2.71875 13.878906 16.859375 11.34375 36.554687 17.335937 56.949219 17.335937 22.75 0 43.785156-7.472656 60.78125-20.09375l13.039062 11.492188c5.550782 4.894531 12.546875 7.53125 19.882813 7.53125.644531 0 1.289062-.019531 1.9375-.0625 8.03125-.503907 15.386719-4.109375 20.710937-10.144531 5.320313-6.039063 7.976563-13.789063 7.46875-21.820313-.503906-8.035156-4.109375-15.390625-10.144531-20.710937l-17.085937-15.0625c3.605468-10.4375 5.566406-21.632813 5.566406-33.28125 0-14.714844-3.128906-28.714844-8.753906-41.367188h146.582031v157.269531c-.003907 4.167969-3.390625 7.554688-7.558594 7.554688zm46.96875-178.34375-19.414063 1.992187v-28.179687l5.167969.53125v13.558593c0 5.523438 4.476563 10 10 10 5.523438 0 10-4.476562 10-10v-9.960937c3.148438 2.207031 5.167969 5.855469 5.167969 9.960937 0 6.261719-4.695312 11.460938-10.921875 12.097657zm0 0"/><path d="m201.683594 349.894531c33.835937 0 61.367187-27.53125 61.367187-61.367187 0-33.839844-27.53125-61.371094-61.367187-61.371094-33.839844 0-61.371094 27.53125-61.371094 61.371094 0 33.835937 27.53125 61.367187 61.371094 61.367187zm0-102.738281c22.808594 0 41.367187 18.558594 41.367187 41.371094 0 22.808594-18.558593 41.367187-41.367187 41.367187-22.8125 0-41.371094-18.558593-41.371094-41.367187 0-22.8125 18.558594-41.371094 41.371094-41.371094zm0 0"/><path d="m122.765625 326.128906c-5.523437 0-10 4.480469-10 10 0 5.523438 4.476563 10 10 10h.023437c5.523438 0 9.988282-4.476562 9.988282-10 0-5.519531-4.492188-10-10.011719-10zm0 0"/></svg>