<svg height="1328pt" viewBox="-41 -104 1328.7492 1328" width="1328pt" xmlns="http://www.w3.org/2000/svg"><path d="m1157.269531 490.136719c-9.917969-8.875-25.113281-8.113281-34.105469 1.648437-9.136718 9.753906-8.675781 25.082032 1.035157 34.277344 4.703125 4.460938 10.71875 6.671875 16.730469 6.671875 6.441406 0 12.886718-2.546875 17.667968-7.601563.152344-.167968.429688-.464843.585938-.640624 8.96875-10.011719 8.109375-25.390626-1.914063-34.355469zm0 0"/><path d="m1158.90625 95.296875c-59.734375-64.527344-144.339844-101.542969-232.074219-101.542969-84.484375 0-163.90625 32.894532-223.644531 92.644532-59.742188 59.746093-92.644531 139.175781-92.644531 223.644531 0 28.746093 3.921875 57.367187 11.664062 85.097656 5.84375 20.9375 13.886719 41.308594 23.988281 60.6875l-33.746093 112.433594c-3.433594 11.558593-2.175781 23.765625 3.566406 34.378906 5.738281 10.601563 15.261719 18.347656 26.816406 21.785156 8.613281 2.566407 17.6875 2.519531 26.246094-.144531l111.972656-33.582031c19.375 10.082031 39.746094 18.132812 60.703125 23.976562 27.722656 7.742188 56.34375 11.652344 85.078125 11.652344 49.085938 0 98.21875-11.671875 142.082031-33.765625 12-6.035156 16.824219-20.671875 10.789063-32.675781-6.050781-12.007813-20.683594-16.828125-32.671875-10.777344-37.113281 18.6875-78.679688 28.5625-120.199219 28.5625-24.308593 0-48.539062-3.3125-72.003906-9.859375-20.546875-5.730469-40.4375-13.980469-59.132813-24.515625-5.769531-3.257813-12.613281-4.015625-18.9375-2.113281l-115.808593 34.738281 34.742187-115.804687c1.90625-6.332032 1.148438-13.171876-2.109375-18.933594-10.53125-18.695313-18.785156-38.585938-24.515625-59.136719-6.550781-23.449219-9.867187-47.6875-9.867187-72.003906 0-71.480469 27.839843-138.691407 78.390625-189.234375 50.550781-50.554688 117.765625-78.386719 189.242187-78.386719 74.230469 0 145.808594 31.324219 196.367188 85.929687 45.957031 49.636719 71.261719 114.171876 71.261719 181.691407 0 43.246093-10.597657 86.257812-30.664063 124.351562-6.242187 11.890625-1.691406 26.601563 10.199219 32.867188 11.894531 6.253906 26.601562 1.6875 32.867187-10.199219 23.722657-45.054688 36.257813-95.90625 36.257813-147.019531 0-79.816407-29.90625-156.082031-84.214844-214.746094zm0 0"/><path d="m498.34375 1064.28125h-.65625c-13.4375 0-24.324219 10.890625-24.324219 24.328125 0 13.429687 10.886719 24.328125 24.324219 24.328125h.65625c13.445312 0 24.332031-10.898438 24.332031-24.328125 0-13.4375-10.886719-24.328125-24.332031-24.328125zm0 0"/><path d="m494.53125 794.847656c25.269531-33.730468 40.269531-75.601562 40.269531-120.90625v-88.558594c0-.089843 0-.183593 0-.257812v-.046875c0-111.40625-90.636719-202.039063-202.046875-202.039063-13.433594 0-24.335937 10.890626-24.335937 24.328126 0 13.433593 10.902343 24.332031 24.335937 24.332031 78.402344 0 143.226563 59.140625 152.265625 135.152343-28.332031 3.984376-65.226562-6.835937-89.765625-35.839843-8.1875-9.691407-22.449218-11.457031-32.753906-4.070313-44.652344 32-126.871094 67.46875-182.429688 43.867188 2.230469-23.699219 9.949219-46.585938 22.726563-66.90625 7.152344-11.378906 3.734375-26.398438-7.640625-33.550782-11.367188-7.144531-26.398438-3.722656-33.550781 7.640626-20.199219 32.140624-30.894531 69.164062-30.894531 107.085937v88.863281c0 45.304688 14.996093 87.183594 40.273437 120.90625-106.398437 58.566406-173.5625 170.519532-173.5625 293.761719 0 13.433594 10.894531 24.328125 24.332031 24.328125h378.703125c13.441407 0 24.328125-10.894531 24.328125-24.328125 0-13.4375-10.886718-24.328125-24.328125-24.328125h-43.375v-162.605469l82.945313 65.082031c7.320312 5.753907 17.292968 6.816407 25.664062 2.738282 8.375-4.066406 13.683594-12.566406 13.683594-21.871094v-105.402344c79.25 47.121094 131.226562 129.640625 139.027344 222.058594h-50.15625c-13.441406 0-24.324219 10.890625-24.324219 24.328125 0 13.429687 10.882813 24.328125 24.324219 24.328125h75.507812c13.441406 0 24.335938-10.898438 24.335938-24.328125 0-123.242187-67.15625-235.195313-173.558594-293.761719zm-121.023438-216.789062c31.394532 27.441406 73.804688 41.351562 112.644532 37.671875v58.210937c0 42.886719-17.722656 81.691406-46.203125 109.550782-.074219.058593-2.960938 2.796874-3.132813 3.011718-27.363281 25.308594-63.929687 40.820313-104.058594 40.820313-40.121093 0-76.671874-15.511719-104.042968-40.808594-.183594-.214844-3.089844-2.964844-3.175782-3.023437-28.457031-27.859376-46.167968-66.664063-46.167968-109.550782v-51.929687c13.644531 3.6875 27.746094 5.332031 41.957031 5.332031 55.652344 0 113.070313-24.960938 152.179687-49.285156zm-138.714843 272.507812c12.222656 6.804688 25.214843 12.382813 38.828125 16.570313l-38.828125 30.464843zm-187.679688 213.714844c7.808594-92.417969 59.78125-174.9375 139.019531-222.058594v105.398438c0 9.308594 5.308594 17.808594 13.683594 21.875 3.375 1.644531 7.015625 2.445312 10.632813 2.445312 5.363281 0 10.660156-1.75 15.03125-5.183594l82.9375-65.085937v162.609375zm344.785157-197.144531c13.609374-4.1875 26.597656-9.765625 38.820312-16.570313v47.035156zm0 0"/><path d="m230.023438 464.636719c4.894531 0 9.832031-1.46875 14.117187-4.527344l.613281-.445313c11.019532-7.683593 13.707032-22.855468 6.007813-33.875-7.695313-11.007812-22.855469-13.703124-33.871094-6.011718l-1.019531.714844c-10.929688 7.808593-13.484375 23.003906-5.671875 33.941406 4.742187 6.660156 12.226562 10.203125 19.824219 10.203125zm0 0"/><path d="m270.875 710.410156h.582031c13.449219 0 24.332031-10.898437 24.332031-24.332031 0-13.4375-10.882812-24.328125-24.332031-24.328125h-.582031c-13.433594 0-24.320312 10.890625-24.320312 24.328125 0 13.433594 10.886718 24.332031 24.320312 24.332031zm0 0"/><path d="m394.054688 710.410156h.578124c13.441407 0 24.332032-10.898437 24.332032-24.332031 0-13.4375-10.890625-24.328125-24.332032-24.328125h-.578124c-13.4375 0-24.335938 10.890625-24.335938 24.328125 0 13.433594 10.898438 24.332031 24.335938 24.332031zm0 0"/><path d="m926.832031 409.796875c-34.882812 0-63.261719 28.382813-63.261719 63.261719 0 34.882812 28.378907 63.261718 63.261719 63.261718 34.878907 0 63.261719-28.378906 63.261719-63.261718 0-34.878906-28.382812-63.261719-63.261719-63.261719zm0 77.867187c-8.054687 0-14.59375-6.554687-14.59375-14.605468 0-8.046875 6.539063-14.59375 14.59375-14.59375 8.042969 0 14.597657 6.546875 14.597657 14.59375 0 8.050781-6.554688 14.605468-14.597657 14.605468zm0 0"/><path d="m1001.28125 312.65625c3.902344-3.480469 7.597656-6.792969 9.699219-8.75 12.941406-11.605469 23.226562-25.640625 30.546875-41.722656 7.617187-16.699219 11.464844-34.285156 11.464844-52.238282 0-33.699218-13.125-65.375-36.941407-89.210937-23.839843-23.832031-55.515625-36.957031-89.214843-36.957031-16.4375 0-32.632813 3.265625-48.125 9.679687-15.628907 6.472657-29.441407 15.648438-41.082032 27.277344-24.667968 24.664063-24.667968 64.796875 0 89.453125 11.941406 11.945312 27.824219 18.527344 44.722656 18.527344 13.109376 0 25.601563-3.957032 36.121094-11.3125-.433594.417968-.859375.777344-1.300781 1.183594-21.34375 19.058593-53.589844 47.871093-53.589844 98.757812 0 34.882812 28.371094 63.261719 63.253907 63.261719 32.800781 0 59.859374-25.105469 62.964843-57.113281 3-3.253907 8.527344-8.199219 11.480469-10.835938zm-22.914062-44.867188c-.125.132813-.265626.253907-.394532.375-1.894531 1.765626-5.402344 4.898438-9.101562 8.1875-14.109375 12.613282-27.433594 24.519532-27.433594 40.992188 0 8.054688-6.542969 14.597656-14.601562 14.597656-8.058594 0-14.59375-6.542968-14.59375-14.597656 0-29.109375 18.980468-46.070312 37.351562-62.480469 1.851562-1.644531 3.753906-3.351562 7.542969-7.117187.222656-.207032.425781-.417969.644531-.625.257812-.246094.507812-.496094.777344-.71875 5.40625-4.71875 9.582031-10.25 12.421875-16.464844 2.765625-6.074219 4.15625-12.796875 4.15625-20.003906 0-12.910156-5.019531-25.035156-14.132813-34.148438-9.132812-9.132812-21.257812-14.152344-34.167968-14.152344-6.601563 0-12.867188 1.210938-18.613282 3.589844-5.652344 2.34375-10.875 5.886719-15.546875 10.5625-2.757812 2.761719-6.414062 4.273438-10.324219 4.273438-3.894531 0-7.554687-1.511719-10.308593-4.273438-5.695313-5.6875-5.695313-14.960937-.011719-20.640625 7.089844-7.074219 15.601562-12.714843 25.296875-16.726562 9.578125-3.964844 19.492187-5.976563 29.507813-5.976563 20.699218 0 40.164062 8.058594 54.796874 22.703125 14.640626 14.632813 22.703126 34.101563 22.703126 54.800781 0 10.957032-2.382813 21.742188-7.089844 32.070313-4.488282 9.855469-11.007813 18.761719-18.878906 25.773437zm0 0"/></svg>