<?xml version="1.0"?>
<svg xmlns="http://www.w3.org/2000/svg" height="512px" viewBox="0 0 512 512" width="512px"><path d="m437.019531 74.980469c-48.351562-48.351563-112.640625-74.980469-181.019531-74.980469-53.925781 0-105.515625 16.582031-149.191406 47.957031-4.484375 3.222657-5.507813 9.472657-2.285156 13.957031 3.222656 4.484376 9.46875 5.511719 13.953124 2.285157 40.253907-28.914063 87.808594-44.199219 137.523438-44.199219 130.132812 0 236 105.871094 236 236 0 49.714844-15.285156 97.265625-44.199219 137.519531-3.222656 4.484375-2.195312 10.734375 2.289063 13.957031 1.765625 1.269532 3.804687 1.878907 5.824218 1.878907 3.109376 0 6.175782-1.449219 8.132813-4.167969 31.371094-43.671875 47.953125-95.261719 47.953125-149.1875 0-68.378906-26.628906-132.667969-74.980469-181.019531zm0 0" fill="#FFFFFF"/><path d="m393.519531 447.800781c-40.25 28.914063-87.800781 44.199219-137.519531 44.199219-130.132812 0-236-105.867188-236-236 0-49.71875 15.28125-97.269531 44.195312-137.519531 3.222657-4.484375 2.199219-10.734375-2.285156-13.953125-4.484375-3.222656-10.734375-2.199219-13.957031 2.285156-31.371094 43.671875-47.953125 95.257812-47.953125 149.1875 0 68.378906 26.628906 132.667969 74.980469 181.019531 48.351562 48.351563 112.640625 74.980469 181.019531 74.980469 53.929688 0 105.519531-16.582031 149.1875-47.957031 4.488281-3.222657 5.511719-9.46875 2.289062-13.953125-3.222656-4.484375-9.46875-5.511719-13.957031-2.289063zm0 0" fill="#FFFFFF"/><path d="m82.050781 92.054688c2.417969 0 4.839844-.871094 6.757813-2.628907 4.074218-3.734375 4.347656-10.058593.617187-14.128906s-10.058593-4.347656-14.128906-.617187l-.007813.007812c-4.070312 3.730469-4.34375 10.054688-.609374 14.125 1.96875 2.148438 4.667968 3.242188 7.371093 3.242188zm0 0" fill="#FFFFFF"/><path d="m423.195312 422.574219-.007812.003906c-4.070312 3.734375-4.34375 10.054687-.609375 14.125 1.972656 2.152344 4.664063 3.242187 7.371094 3.242187 2.414062 0 4.839843-.867187 6.757812-2.628906 4.070313-3.730468 4.347657-10.058594.613281-14.128906-3.726562-4.070312-10.054687-4.347656-14.125-.613281zm0 0" fill="#FFFFFF"/><path d="m266.40625 100.054688h-44.507812c-5.523438 0-10 4.476562-10 10 0 22.921874-15.335938 55.199218-49.433594 55.199218-5.523438 0-10 4.476563-10 10v54.917969c0 5.523437 4.476562 10 10 10h20.84375v101.089844c0 44.9375 24.605468 65.636719 45.242187 75.085937 17.875 8.183594 37.523438 10.203125 52.542969 10.203125 5.757812 0 10.832031-.296875 14.867188-.65625 20.992187-1.867187 39.46875-7.3125 47.066406-13.871093 2.203125-1.898438 3.46875-4.664063 3.46875-7.570313v-63.191406c0-3.246094-1.574219-6.289063-4.226563-8.164063-2.648437-1.875-6.042969-2.347656-9.101562-1.269531-17.125 6.046875-38.4375 13.570313-48.085938 6.746094-7.480469-5.292969-9.050781-20.007813-9.050781-31.417969v-66.984375h57.957031c5.523438 0 10-4.476563 10-10v-54.917969c0-5.523437-4.476562-10-10-10h-57.582031v-55.199218c0-5.523438-4.476562-10-10-10zm57.582031 85.199218v34.917969h-57.957031c-5.519531 0-10 4.476563-10 10v76.984375c0 23.792969 5.726562 39.410156 17.503906 47.742188 14.605469 10.335937 34.101563 6.4375 52.960938.359374v43.613282c-13.515625 6.023437-56.808594 14.3125-89.617188-.710938-22.273437-10.195312-33.566406-29.34375-33.566406-56.902344v-111.085937c0-5.523437-4.480469-10-10-10h-20.847656v-35.636719c16.542968-2.417968 31.203125-10.863281 42.011718-24.382812 9.019532-11.285156 14.90625-25.496094 16.777344-40.097656h25.152344v55.199218c0 5.523438 4.480469 10 10 10zm0 0" fill="#FFFFFF"/></svg>
